<?xml version="1.0" encoding="UTF-8" standalone="no"?>
<!DOCTYPE svg PUBLIC "-//W3C//DTD SVG 1.1//EN" "http://www.w3.org/Graphics/SVG/1.1/DTD/svg11.dtd">
<svg width="100%" height="100%" viewBox="0 0 1438 267" version="1.1" xmlns="http://www.w3.org/2000/svg" xmlns:xlink="http://www.w3.org/1999/xlink" xml:space="preserve" xmlns:serif="http://www.serif.com/" style="fill-rule:evenodd;clip-rule:evenodd;stroke-linejoin:round;stroke-miterlimit:2;">
    <g id="Artboard1" transform="matrix(0.995115,0,0,0.12322,2.54756,2.21095)">
        <rect x="-2.56" y="-17.943" width="1444.42" height="2162.14" style="fill:none;"/>
        <g transform="matrix(-0.224584,1.81372,0.224584,1.81372,914.768,245.235)">
            <path d="M449.215,0.695C465.673,17.153 514.008,69.974 333.167,243.433C80.22,486.054 -859.754,1309.66 -859.754,1309.66C-859.754,1309.66 39.94,319.267 234.42,144.685C428.899,-29.898 432.758,-15.763 449.215,0.695Z" style="fill:white;"/>
        </g>
        <g transform="matrix(0.224584,1.81372,-0.224584,1.81372,531.51,210.699)">
            <path d="M449.215,0.695C465.673,17.153 531.907,56.55 333.167,243.433C77.829,483.537 -859.754,1309.66 -859.754,1309.66C-859.754,1309.66 39.94,319.267 234.42,144.685C428.899,-29.898 432.758,-15.763 449.215,0.695Z" style="fill:white;"/>
        </g>
        <g transform="matrix(0.446831,0,0,3.60857,69.679,-789.58)">
            <path d="M1549.77,575.19C1549.77,575.19 1548.48,576.481 1546.13,573.064C1543.77,569.647 1525.78,548.559 1513.16,538.974C1500.53,529.388 1485.09,514.583 1467.17,512.21C1467.17,512.21 1456.22,527.569 1461.53,564.336C1465.01,588.376 1464.15,596.492 1489.63,620.525C1504.98,635.007 1518.08,631.747 1546.13,641.958C1565.22,648.909 1571.01,645.723 1586.07,660.784C1601.13,675.845 1595.53,675.168 1600.56,680.189C1603.38,683.012 1606.64,682.942 1608.95,660.784C1611.27,638.625 1599.98,573.748 1554.21,520.166C1508.45,466.584 1483.25,494.099 1478.91,499.602C1474.57,505.105 1490.78,507.422 1505.56,520.166C1520.33,532.91 1534.53,547.646 1546.13,565.441C1546.43,565.902 1551.61,574.558 1549.77,575.19Z" style="fill:white;"/>
        </g>
        <g transform="matrix(0.446831,0,0,3.60857,69.679,-789.58)">
            <path d="M1367.57,423.7C1367.57,423.7 1366.41,426.249 1377.07,431.578C1387.73,436.908 1409.05,445.017 1419.94,463.09C1430.83,481.163 1435.92,479.078 1425.27,484.176C1414.61,489.273 1385.18,503.175 1346.49,487.883C1307.79,472.59 1302.69,420.225 1299.91,398.676C1297.13,377.127 1298.06,370.176 1299.91,369.249C1301.77,368.323 1328.18,392.652 1382.63,396.359C1437.08,400.066 1447.34,414.376 1455.16,438.529C1460.25,454.285 1446.12,476.066 1437.78,470.737C1429.44,465.407 1428.97,462.395 1419.94,451.505C1410.9,440.615 1393.59,433.489 1382.63,429.725C1377.68,428.023 1371.57,424.577 1370.39,423.7C1369.2,422.824 1367.84,422.56 1367.57,423.7Z" style="fill:white;"/>
        </g>
        <g transform="matrix(0.446831,0,0,3.60857,69.679,-789.58)">
            <path d="M1527.75,435.969C1527.75,435.969 1527.39,433.359 1515.53,437.274C1503.67,441.189 1476.26,461.119 1473.06,466.932C1469.86,472.745 1458.11,474.288 1459.18,465.865C1460.25,457.442 1465.94,451.51 1471.4,435.969C1476.86,420.428 1508.59,389.2 1563.38,389.2C1566.62,389.2 1602.35,387.674 1627.21,403.486C1631.38,406.134 1627.39,408.63 1620.72,411.781C1614.05,414.932 1600.89,425.68 1594.77,435.969C1588.65,446.259 1576.05,464.795 1546.76,475.732C1517.47,486.668 1503.39,478.327 1494.86,480.18C1486.33,482.034 1484.29,488.336 1477.06,485.556C1469.84,482.776 1476.88,473.322 1490.04,462.2C1503.2,451.078 1507.65,446.259 1524.7,439.771C1524.89,439.771 1528.66,438.477 1527.75,435.969Z" style="fill:white;"/>
        </g>
        <g transform="matrix(0.446831,0,0,3.60857,69.679,-789.58)">
            <path d="M1380.08,558.132C1380.08,558.132 1378.27,541.84 1431.67,495.68C1454.77,475.716 1390.94,506.541 1383.7,508.804C1376.46,511.067 1302.7,551.475 1345.69,664.934C1348.95,673.538 1349.97,664.544 1355.65,659.825C1360.31,655.942 1380.54,633.124 1404.07,627.694C1427.6,622.263 1457.2,590.765 1447.06,543.7C1445.18,534.949 1448.44,524.624 1450.32,519.806C1452.57,514.032 1454.66,513.289 1450.32,503.514C1448.75,499.987 1440.01,493.898 1426.34,510.061C1425.62,511.147 1389.13,543.601 1380.08,558.132Z" style="fill:white;"/>
        </g>
    </g>
</svg>
